<?xml version="1.0" encoding="UTF-8"?>
<svg id="Layer_2" data-name="Layer 2" xmlns="http://www.w3.org/2000/svg" viewBox="0 0 262.77 267.58">
  <defs>
    <style>
      .cls-1 {
        fill: #fff;
      }
    </style>
  </defs>
  <g id="Layer_1-2" data-name="Layer 1">
    <path class="cls-1" d="M209.96,37.5c1.73,1.66,3.24,3.08,4.5,4.53,1.25,1.46,2.4,2.78,3.47,4.17,1.05,1.41,2.09,2.81,3.25,4.3,1.08,1.56,2.31,3.19,3.71,5.07,1.27,1.82,2.22,3.36,2.98,4.77.71,1.44,1.26,2.72,1.79,3.95.56,1.21,1,2.44,1.6,3.71.59,1.28,1.38,2.58,2.28,4.17,3.64,5.91,5.34,12.27,6.4,18.56,1.08,6.32,1.62,12.53,2.96,19.02,1.49,7.41,2.63,14.5,3.18,21.62.56,7.11.59,14.22-.37,21.46-1.91,14.49-5.55,29.03-12.15,42.68-6.55,13.59-16.15,26.21-28.64,35.36-1.62,1.16-3.3,2.09-4.97,2.94-1.69.81-3.43,1.45-5.12,2.13-3.45,1.27-6.86,2.46-10.35,4.33-.99.58-2.07,1.19-3.2,1.89-1.14.69-2.3,1.52-3.55,2.32-1.25.78-2.55,1.63-3.88,2.5-1.32.88-2.73,1.65-4.12,2.51-5.58,3.29-11.62,6.16-16.33,6.95-1.1.2-2.13.35-3.1.46-.98.07-1.91.08-2.8.07-.89,0-1.74-.05-2.57-.1-.85-.04-1.59-.15-2.3-.28-1.42-.25-2.68-.54-3.94-.77-1.26-.29-2.5-.56-3.97-.68-.12-.01-.25-.03-.36-.05-.04-.03-.15.02-.13-.07l.04-.25c.06-.33.12-.67.2-1.01.15-.68.33-1.36.51-1.99.35-1.27.67-2.33.67-3.17h0c0-.85.11-1.41.29-1.9.09-.25.2-.48.32-.72.12-.34.25-.89.4-1.46.87-3.58,1.21-7.28,1.01-10.99-.49-9.09-.99-27.2,1.84-39.45,4.14-17.93,3.12-34.05,3.3-52.27.08-8.18-14.66-14.33-15.9-3.85-3.58,30.37-7.52,61.75-3.8,92.17.21,1.68.96,4.4,1.66,7.86.35,1.73.69,3.65.94,5.72.06.52.11,1.04.17,1.58l.04.4.03.47c.02.39.04.78.06,1.17.07,1.56.11,3.16.11,4.8-.02,2.96-.24,5.38-.64,7.86-.19,1.23-.42,2.46-.67,3.72-.06.32-.13.64-.19.95-.02.28-.26.77.04.72l1.14.4c1.57.54,3.4,1.08,5.96,1.46,2.55.41,5.86.45,10.16.27.89-.05,1.8-.1,2.72-.14.86-.09,1.27-.16,1.87-.24,1.13-.16,2.28-.35,3.45-.55.58-.1,1.17-.21,1.76-.32.59-.14,1.18-.28,1.77-.42,1.18-.29,2.38-.59,3.58-.89,2.4-.62,4.77-1.45,7.12-2.19,2.33-.83,4.6-1.71,6.8-2.55,2.16-.92,4.25-1.8,6.21-2.63,1.93-.89,3.76-1.7,5.43-2.38,1.65-.74,3.14-1.37,4.47-1.81.66-.22,1.28-.4,1.85-.53.56-.15,1.07-.25,1.53-.29,1.3-.11,2.87-.44,4.65-.93,1.76-.53,3.7-1.31,5.8-2.19,2.09-.92,4.26-2.1,6.55-3.33,1.12-.66,2.25-1.37,3.4-2.09,1.14-.73,2.33-1.45,3.45-2.28,9.19-6.39,17.92-15.06,23.51-22.08,1.05-1.33,2.03-2.97,3.04-4.84.95-1.92,1.88-4.09,2.93-6.4,1.92-4.75,4.21-10.1,7.11-16.04.34-.69.76-1.39,1.16-2.14.39-.75.82-1.52,1.26-2.31.89-1.57,1.89-3.19,2.74-4.86.87-1.67,1.79-3.3,2.49-4.91.7-1.61,1.3-3.13,1.71-4.49,1.88-6.55,2.63-16.03,2.4-25.97,0-.62-.01-1.24-.02-1.87-.03-.63-.06-1.25-.1-1.88-.05-1.25-.11-2.51-.16-3.78-.12-2.52-.37-5.05-.46-7.56-.23-2.51-.39-5-.53-7.45-.24-2.45-.28-4.88-.39-7.24-.29-8.59-1.74-17.95-4.56-27.41-2.83-9.45-6.95-19.02-12.41-27.92-3.29-5.48-7.13-10.67-11.21-15.58-4.09-4.91-8.63-9.38-13.27-13.53-7.69-6.72-15.93-12.29-24.06-16.64-6.5-3.46-12.92-6.16-18.92-8.25-1.51-.5-3-.95-4.44-1.4-.72-.22-1.44-.44-2.14-.66-.71-.19-1.42-.37-2.11-.55-1.39-.36-2.73-.71-4.04-1.04-1.32-.27-2.59-.54-3.82-.79-2.45-.56-4.75-.87-6.84-1.21-2.08-.37-3.98-.55-5.65-.74-3.33-.44-5.77-.56-7.13-.75-2.95-.46-5.87-.82-8.81-1.2-1.47-.16-2.95-.2-4.43-.21-1.48,0-2.98.04-4.47.33-1.42.25-3.06.51-4.81.78-1.74.34-3.59.7-5.45,1.07-1.86.32-3.67.86-5.4,1.26-.86.21-1.69.42-2.47.62-.78.24-1.51.46-2.19.67-2.56.79-4.17,1.2-5.77,1.69-.81.22-1.61.44-2.54.69-.93.25-1.98.51-3.23.94-1.76.59-3.52,1.25-5.2,2.08-1.67.86-3.32,1.78-4.94,2.73-1.57,1.02-3.15,2.04-4.72,3.06-1.56,1.01-3.06,2.11-4.61,3.05-8.28,5.2-17.02,10.19-24.87,16.19-13.23,10.13-24.86,22.49-33.63,37.14-2.61,4.28-4.63,8.96-6.35,13.77-.79,2.43-1.54,4.88-2.18,7.36l-.86,3.75-.24,1.05c-.1.41-.2.84-.29,1.3l-.46,2.68-.88,5.26c-.07.43-.16.87-.2,1.29l-.11,1.25-.22,2.47c-.14,1.63-.31,3.27-.42,4.85l-.15,4.56c-.15,3.02-.16,5.99-.26,8.99-.06,1.48-.09,3.03-.12,4.61-.05,1.6-.1,3.19-.15,4.78l-.03.83v.21c-.01.07.03.03.04.06l.12.06.49.23c.32.16.64.32.95.48,1.62-1.56,3.24-3.12,4.85-4.67,1.72-1.6,3.43-3.19,5.14-4.78l2.58-2.39,1.29-1.2,1.28-1.1,5.17-4.4,2.62-2.21c.88-.75,1.76-1.34,2.65-2.02.89-.68,1.79-1.29,2.69-1.91l1.3-.89.92-.62c1.22-.84,2.5-1.6,3.79-2.34,1.29-.74,2.58-1.48,3.88-2.22,8.35-4.47,16.32-9.37,24.81-13.49,8.45-4.1,17.44-7.43,26.9-8.2,2.02-.26,4.08-.36,6.1-.65,2.03-.26,4.04-.63,6.08-.86,2.03-.28,4.06-.61,6.09-.97,2.05-.26,4.09-.54,6.15-.85,8.21-1.05,16.64-1.92,24.88-.94v.09c1.55.16,3.11.28,4.64.55l6.12.96c2.03.37,4.04.86,6.05,1.29,1,.23,2.01.43,3.01.69l2.97.84,2.96.85c.99.28,1.97.56,2.94.92l5.8,2.04c1.92.71,3.79,1.56,5.67,2.34.94.4,1.88.79,2.81,1.21l2.74,1.35,2.73,1.36c.91.45,1.81.9,2.69,1.42,1.96,1.12,3.94,2.19,5.94,3.22,1.95,1.13,3.92,2.23,5.92,3.29,1.01.51,1.98,1.1,2.95,1.67l2.94,1.7c2,1.08,3.91,2.31,5.84,3.5,7.72,4.79,15.26,10.09,21.87,16.35,2.72,2.64,7.74,2.26,11.36.43,3.6-1.83,5.61-5.24,1.85-8.89l-2.18-2.12-2.27-2.04-4.54-4.07-4.72-3.88c-.79-.64-1.56-1.31-2.38-1.92l-2.45-1.83c-6.47-4.98-13.43-9.36-20.59-13.31l-5.45-2.82c-1.82-.93-3.72-1.7-5.58-2.54-3.7-1.73-7.59-3.01-11.41-4.4-1.94-.61-3.9-1.16-5.85-1.72l-2.93-.81-2.97-.65c-1.98-.42-3.95-.82-5.93-1.19-2-.28-3.99-.54-5.98-.78l-2.98-.37-2.99-.29c-1.99-.21-3.96-.47-5.93-.72-1.98-.18-3.96-.39-5.93-.62l-2.96-.36-2.97-.25v-.1c-13.3-1.3-26.83-2.11-40.38-.85-13.5,1.21-26.96,4.68-38.79,11.32-7.58,4.14-15.26,7.71-22.86,11.62-1.88,1.01-3.78,1.99-5.64,3.04-1.83,1.1-3.65,2.22-5.45,3.36-.9.57-1.8,1.15-2.65,1.79l-1.28.95-.47.36-.3.24c-.81.66-1.57,1.32-2.36,2.21-1.22,1.35-2.65,2.76-4.08,4.37l-2.27,2.41-2.31,2.56-1.1,1.21-.56.6-.28.3s-.11.14-.12.11v-.15c-.06-.79-.1-1.63-.13-2.5-.05-.87-.01-1.77.03-2.69.05-.92.07-1.87.18-2.83.39-3.83,1.23-7.9,2.41-11.55.59-1.75,1.17-3.49,1.76-5.23.69-1.89,1.45-3.75,2.15-5.63.8-1.83,1.6-3.67,2.4-5.5l2.64-5.36c3.67-7.06,7.94-13.74,12.7-20.06,9.55-12.62,21-23.77,34.28-33.53,5.72-4.21,11.5-7.72,17.65-10.43,6.14-2.72,12.63-4.73,19.75-5.77,9.98-1.37,19.79-.53,29.64-.05,7.86.41,16.23.22,24,2.13l1.7.42c.56.17,1.11.36,1.66.55,1.1.38,2.2.79,3.29,1.21,2.17.88,4.26,1.96,6.35,2.95,2.04,1.14,4.11,2.19,6.13,3.32,2,1.17,4.07,2.14,6.1,3.23,1.03.52,2.09,1.01,3.15,1.47l3.17,1.47c1.06.49,2.16.91,3.21,1.43l3.18,1.53,1.59.77,1.54.86c1.03.58,2.05,1.17,3.06,1.78,1.98,1.28,3.88,2.67,5.64,4.23Z"/>
  </g>
</svg>